<?xml version="1.0" encoding="utf-8"?>
<!-- Generator: Adobe Adobe Illustrator 24.2.0, SVG Export Plug-In . SVG Version: 6.00 Build 0)  -->
<svg version="1.1" id="Layer_1" xmlns="http://www.w3.org/2000/svg" xmlns:xlink="http://www.w3.org/1999/xlink" x="0px" y="0px"
	 width="560px" height="288px" viewBox="0 0 560 288" style="enable-background:new 0 0 560 288;" xml:space="preserve">
<style type="text/css">
	.st0{fill:url(#SVGID_1_);}
	.st1{opacity:0.7216;fill:url(#SVGID_2_);}
	.st2{fill:url(#SVGID_3_);}
	.st3{opacity:0.9098;}
	.st4{fill:#FFFFFF;stroke:#FFFFFF;stroke-miterlimit:10;}
</style>
<linearGradient id="SVGID_1_" gradientUnits="userSpaceOnUse" x1="187.353" y1="113.4703" x2="330.353" y2="113.4703">
	<stop  offset="0" style="stop-color:#5005F2"/>
	<stop  offset="1" style="stop-color:#05EFF7;stop-opacity:0.8784"/>
</linearGradient>
<path class="st0" d="M187.35,85.5c0-37.28,57.43,27.54,96.92,27.54s46.08-64.82,46.08-27.54s-32.01,67.5-71.5,67.5
	S187.35,122.78,187.35,85.5z"/>
<linearGradient id="SVGID_2_" gradientUnits="userSpaceOnUse" x1="198.8625" y1="165.6995" x2="343.8625" y2="165.6995">
	<stop  offset="0" style="stop-color:#75A181;stop-opacity:0.1412"/>
	<stop  offset="1" style="stop-color:#FFFFFF"/>
</linearGradient>
<ellipse class="st1" cx="271.36" cy="165.7" rx="72.5" ry="8.7"/>
<linearGradient id="SVGID_3_" gradientUnits="userSpaceOnUse" x1="301.5021" y1="126.0639" x2="330.9586" y2="96.6855">
	<stop  offset="0" style="stop-color:#5005F2"/>
	<stop  offset="1" style="stop-color:#05EBF7;stop-opacity:0.8784"/>
</linearGradient>
<path class="st2" d="M309.24,65.99c-23.24-1.27-19.34,6.9-14.29,24.37c5.05,17.47,2.06,5.45,10.33,37.46
	c8.27,32,13.77,46.58,13.77,46.58s-6.56-24.83-11.2-50.03c-2.16-11.74-6.9-28.05-7.36-37.47c-0.53-10.8,3.62-13.95,7.74-14.72
	c9.35-1.75,27.65-2.9,29.62-3.71C341.15,67.11,322.08,66.69,309.24,65.99z"/>
<g class="st3">
	<path d="M203.8,179.91c-0.27-0.75-0.67-1.42-1.65-1.42h-1.1v-0.77h6.37v0.77h-1.3c-0.87,0-1.2,0.5-1.2,0.88
		c0,0.17,0.05,0.35,0.15,0.55l5.47,14.35l5.72-14.22c0.1-0.25,0.15-0.45,0.15-0.65c0-0.67-0.68-0.9-1.23-0.9h-1.22v-0.77h5.82v0.77
		h-1.02c-0.85,0-1.2,0.3-1.65,1.55l-6.42,16.1h-0.75L203.8,179.91z"/>
	<path d="M223.38,186.54c0-0.67-1.05-0.67-1.92-0.65v-0.77c0.92,0,1.97-0.33,3.17-0.97v10.15c0,0.7,0.57,0.9,1.05,0.9h1.5v0.77h-6.4
		v-0.77h1.5c0.55,0,1.1-0.25,1.1-0.9V186.54z M225.2,178.61c0,0.65-0.57,1.15-1.17,1.15c-0.72,0-1.07-0.58-1.07-1.15
		c0-0.65,0.4-1.1,1.07-1.1C224.68,177.51,225.2,177.96,225.2,178.61z"/>
	<path d="M228.95,192.39c0.62,1.2,1.32,2.03,2.17,2.47c0.85,0.53,1.75,0.78,2.6,0.78c1.4,0,2.7-0.85,2.7-2.3
		c0-1.72-1.15-2.37-2.87-2.85c-1.97-0.47-3.25-0.97-3.77-1.6c-0.47-0.5-0.72-1.2-0.72-2c0-1.25,1.27-2.97,3.6-2.97
		c0.95,0,1.85,0.25,2.67,0.72l0.52-0.57h0.25l1.27,3.3h-0.47c-0.95-1.52-2.1-2.67-4.25-2.67c-1.6,0-2.45,1.05-2.45,2.2
		c0,1.3,0.92,1.8,3.35,2.32c2.37,0.62,4.02,1.3,4.02,3.92c0,1.55-1.32,3.27-3.85,3.27c-0.97,0-2.02-0.35-3.12-1.05l-0.62,0.67h-0.4
		l-1.05-3.52L228.95,192.39z"/>
	<path d="M245.13,196.49c-4.17,0-5.67-3.55-5.67-6.22c0-4.8,3.42-6.5,5.67-6.5c2.85,0,5.52,2.12,5.52,6.5
		C250.65,193.04,249.08,196.49,245.13,196.49z M248.1,185.94c-0.77-0.9-1.77-1.37-2.97-1.37c-1.23,0-2.25,0.47-3.1,1.4
		c-0.8,0.9-1.17,2.35-1.17,4.3c0,1.82,0.67,5.42,4.27,5.42c3.27,0,4.1-3.32,4.1-5.42C249.23,188.29,248.85,186.84,248.1,185.94z"/>
	<path d="M253.83,186.51c0-0.53-0.38-0.67-2-0.67v-0.77c0.92,0,2.02-0.33,3.27-0.92v2.45c0.45-0.62,1.85-2.45,3.95-2.45
		c0.85,0,1.92,0.17,1.92,1.42c0,0.48-0.35,0.75-0.85,0.75c-0.42,0-0.75-0.17-1-0.5c-0.25-0.32-0.58-0.45-1.02-0.45
		c-1.12,0-2.2,1.02-3,2.82v5.97c0,0.8,0.2,1.02,0.92,1.02h0.92v0.77h-5.07v-0.77c1.45,0,1.95,0,1.95-1.02V186.51z"/>
	<path d="M263.7,179.76c0-0.75-0.25-1.28-1.02-1.28h-1.55v-0.77h14.2l1.65,4.7h-0.65c-1.17-2.4-2.27-3.92-4.7-3.92h-5.5
		c-0.82,0-1.17,0.53-1.17,1.28v6.52h4.3c2.02,0,2.3-0.75,2.3-3.05h0.62v6.87h-0.62c0-2.57-0.4-3.05-2.3-3.05h-4.3v7.02
		c0,0.82,0.65,1.1,1.15,1.1h1.5v0.77h-6.47v-0.77h1.6c0.58,0,0.98-0.35,0.98-1.1V179.76z"/>
	<path d="M283.78,196.49c-4.17,0-5.67-3.55-5.67-6.22c0-4.8,3.42-6.5,5.67-6.5c2.85,0,5.52,2.12,5.52,6.5
		C289.3,193.04,287.72,196.49,283.78,196.49z M286.75,185.94c-0.77-0.9-1.77-1.37-2.97-1.37c-1.23,0-2.25,0.47-3.1,1.4
		c-0.8,0.9-1.17,2.35-1.17,4.3c0,1.82,0.67,5.42,4.27,5.42c3.27,0,4.1-3.32,4.1-5.42C287.88,188.29,287.5,186.84,286.75,185.94z"/>
	<path d="M293.5,180.04c0-0.25-0.03-0.42-0.15-0.52c-0.12-0.12-0.72-0.17-1.75-0.17v-0.78c0.9,0,1.97-0.35,3.17-1.02v16.55
		c0,0.58,0.12,1.1,0.88,1.1h1.65v0.77H291v-0.77h1.47c1,0,1.02-0.65,1.02-1.1V180.04z"/>
	<path d="M299.98,180.16c0-0.85-0.55-0.95-1.9-0.95v-0.78c0.9,0,1.95-0.27,3.17-0.9v12.6l4.47-3.92c0.33-0.3,0.5-0.58,0.5-0.75
		c0-0.42-0.4-0.38-0.52-0.38h-0.95v-0.77h5.37v0.77h-0.78c-0.82,0-1.67,0.22-2.52,1.12l-2.5,2.17l4.07,5.6
		c0.82,1.2,1.12,1.2,2.15,1.2v0.77h-5.05v-0.77h1.15c0.2-0.03,0.58-0.05,0.58-0.35c0-0.1-0.03-0.2-0.1-0.33l-3.75-5.3l-2.12,1.88
		v3.07c0,0.72,0.45,1.02,0.88,1.02h0.95v0.77h-4.97v-0.77h1c0.67,0,0.88-0.42,0.88-1.02V180.16z"/>
	<path d="M311.53,192.39c0.62,1.2,1.32,2.03,2.17,2.47c0.85,0.53,1.75,0.78,2.6,0.78c1.4,0,2.7-0.85,2.7-2.3
		c0-1.72-1.15-2.37-2.87-2.85c-1.97-0.47-3.25-0.97-3.77-1.6c-0.47-0.5-0.72-1.2-0.72-2c0-1.25,1.27-2.97,3.6-2.97
		c0.95,0,1.85,0.25,2.67,0.72l0.53-0.57h0.25l1.27,3.3h-0.47c-0.95-1.52-2.1-2.67-4.25-2.67c-1.6,0-2.45,1.05-2.45,2.2
		c0,1.3,0.92,1.8,3.35,2.32c2.37,0.62,4.02,1.3,4.02,3.92c0,1.55-1.33,3.27-3.85,3.27c-0.97,0-2.02-0.35-3.12-1.05l-0.62,0.67h-0.4
		l-1.05-3.52L311.53,192.39z"/>
</g>
<circle class="st4" cx="313.14" cy="115.01" r="4.22"/>
</svg>
